<?xml version="1.0" encoding="utf-8"?>
<!-- Generator: Adobe Illustrator 15.1.0, SVG Export Plug-In . SVG Version: 6.00 Build 0)  -->
<!DOCTYPE svg PUBLIC "-//W3C//DTD SVG 1.1//EN" "http://www.w3.org/Graphics/SVG/1.1/DTD/svg11.dtd">
<svg version="1.1" id="Layer_1" xmlns="http://www.w3.org/2000/svg" xmlns:xlink="http://www.w3.org/1999/xlink" x="0px" y="0px"
	 width="512px" height="512px" viewBox="0 0 512 512" enable-background="new 0 0 512 512" xml:space="preserve">
<g>
	<path fill="#FFC801" d="M384,76.465h-43.434l-19.16-37.524C315.734,27.848,304.363,21,291.648,21h-71.296
		c-12.715,0-24.086,6.848-29.782,17.941l-19.136,37.524H128c-23.508,0-42.668,18.668-42.668,41.601v138.668
		c0,22.934,19.16,41.598,42.668,41.598h256c23.508,0,42.668-18.664,42.668-41.598V118.066C426.668,95.133,407.508,76.465,384,76.465
		L384,76.465z M322.367,178.164c0,35.688-29.781,64.703-66.367,64.703s-66.367-29.035-66.367-64.703
		c0-35.672,29.758-64.726,66.367-64.726C292.609,113.438,322.367,142.473,322.367,178.164L322.367,178.164z"/>
	<path fill="#FFC801" d="M218.688,440.5c-0.618,0-1.258-0.023-1.876-0.086C89.152,429.234,0,373,0,303.668
		c0-21.398,3.477-37.57,21.289-56.898c7.981-8.661,21.465-9.235,30.145-1.258c8.664,7.98,9.238,21.484,1.257,30.145
		c-8.765,9.516-10.023,14.526-10.023,28.012c0,44.117,78.121,85.504,177.855,94.229c11.735,1.025,20.438,11.369,19.391,23.104
		C238.953,432.113,229.633,440.5,218.688,440.5L218.688,440.5z"/>
	<path fill="#FFC801" d="M303.66,439.477c-10.73,0-19.969-8.086-21.184-19.012c-1.281-11.711,7.168-22.25,18.879-23.551
		C401.835,385.887,469.332,342.535,469.332,309c0-16.789-2.922-22.039-12.137-36.074c-6.465-9.855-3.711-23.082,6.121-29.547
		c9.879-6.465,23.104-3.711,29.547,6.121C504.77,267.656,512,280.711,512,309c0,62.398-86.633,117.207-205.973,130.348
		C305.238,439.434,304.449,439.477,303.66,439.477L303.66,439.477z"/>
	<path fill="#FFC801" d="M251.309,409.691l-53.336-53.332c-4.567-4.566-11.457-5.93-17.43-3.479
		c-5.973,2.475-9.875,8.32-9.875,14.785V474.33c0,6.465,3.902,12.313,9.875,14.785c1.984,0.813,4.055,1.215,6.125,1.215
		c4.16,0,8.254-1.621,11.305-4.691l53.336-53.332C257.559,426.055,257.559,415.945,251.309,409.691L251.309,409.691z"/>
</g>
</svg>
